{
	"asset":{
		"generator":"Khronos glTF Blender I/O v4.0.44",
		"version":"2.0"
	},
	"extensionsUsed":[
		"KHR_materials_clearcoat",
		"KHR_materials_specular",
		"KHR_materials_ior"
	],
	"scene":0,
	"scenes":[
		{
			"name":"Scene",
			"nodes":[
				0,
				1,
				2,
				3,
				4,
				5,
				6,
				7,
				8,
				9
			]
		}
	],
	"nodes":[
		{
			"mesh":0,
			"name":"Head",
			"rotation":[
				0.70710688829422,
				0,
				0,
				0.7071066498756409
			],
			"scale":[
				100,
				100,
				100
			]
		},
		{
			"mesh":1,
			"name":"Lashes",
			"rotation":[
				0.70710688829422,
				0,
				0,
				0.7071066498756409
			],
			"scale":[
				100,
				100,
				100
			]
		},
		{
			"mesh":2,
			"name":"Brows",
			"rotation":[
				0.70710688829422,
				0,
				0,
				0.7071066498756409
			],
			"scale":[
				100,
				100,
				100
			]
		},
		{
			"mesh":3,
			"name":"Teeth",
			"rotation":[
				0.70710688829422,
				0,
				0,
				0.7071066498756409
			],
			"scale":[
				100,
				100,
				100
			]
		},
		{
			"mesh":4,
			"name":"Tongue",
			"rotation":[
				0.70710688829422,
				0,
				0,
				0.7071066498756409
			],
			"scale":[
				100,
				100,
				100
			]
		},
		{
			"mesh":5,
			"name":"Lens Right",
			"rotation":[
				0.70710688829422,
				0,
				0,
				0.7071066498756409
			],
			"scale":[
				100,
				100,
				100
			]
		},
		{
			"mesh":6,
			"name":"Lens Left",
			"rotation":[
				0.70710688829422,
				0,
				0,
				0.7071066498756409
			],
			"scale":[
				100,
				100,
				100
			]
		},
		{
			"mesh":7,
			"name":"Realtime Eyeball Right",
			"rotation":[
				0.70710688829422,
				0,
				0,
				0.7071066498756409
			],
			"scale":[
				100,
				100,
				100
			]
		},
		{
			"mesh":8,
			"name":"Realtime Eyeball Left",
			"rotation":[
				0.70710688829422,
				0,
				0,
				0.7071066498756409
			],
			"scale":[
				100,
				100,
				100
			]
		},
		{
			"mesh":9,
			"name":"Eye Wet",
			"rotation":[
				0.70710688829422,
				0,
				0,
				0.7071066498756409
			],
			"scale":[
				100,
				100,
				100
			]
		}
	],
	"materials":[
		{
			"doubleSided":true,
			"extensions":{
				"KHR_materials_clearcoat":{
					"clearcoatFactor":0.04848484694957733,
					"clearcoatRoughnessFactor":0.12393935769796371
				},
				"KHR_materials_specular":{
					"specularTexture":{
						"index":0
					}
				},
				"KHR_materials_ior":{
					"ior":1.4500000476837158
				}
			},
			"name":"Material.001",
			"normalTexture":{
				"index":1
			},
			"pbrMetallicRoughness":{
				"baseColorTexture":{
					"index":2
				},
				"metallicFactor":0,
				"metallicRoughnessTexture":{
					"index":3
				}
			}
		},
		{
			"doubleSided":true,
			"extensions":{
				"KHR_materials_specular":{
					"specularColorFactor":[
						2.0,
						2.0,
						2.0
					]
				},
				"KHR_materials_ior":{
					"ior":1.4500000476837158
				}
			},
			"name":"Brows",
			"pbrMetallicRoughness":{
				"baseColorFactor":[
					0.10293853282928467,
					0.10293853282928467,
					0.10293853282928467,
					0.7212121486663818
				]
			}
		},
		{
			"doubleSided":true,
			"extensions":{
				"KHR_materials_specular":{
					"specularColorFactor":[
						0.6168677806854248,
						0.6168677806854248,
						0.6168677806854248
					]
				},
				"KHR_materials_ior":{
					"ior":1.4500000476837158
				}
			},
			"name":"Teeth",
			"normalTexture":{
				"index":4
			},
			"pbrMetallicRoughness":{
				"baseColorTexture":{
					"index":5
				},
				"metallicFactor":0,
				"roughnessFactor":0.3227272927761078
			}
		},
		{
			"doubleSided":true,
			"extensions":{
				"KHR_materials_specular":{
					"specularFactor":0.6000000238418579
				},
				"KHR_materials_ior":{
					"ior":1.4500000476837158
				}
			},
			"name":"Tongue",
			"normalTexture":{
				"index":6
			},
			"pbrMetallicRoughness":{
				"baseColorTexture":{
					"index":7
				},
				"metallicFactor":0,
				"roughnessFactor":0.30000001192092896
			}
		},
		{
			"doubleSided":true,
			"extensions":{
				"KHR_materials_specular":{
					"specularColorFactor":[
						2.0,
						2.0,
						2.0
					]
				},
				"KHR_materials_ior":{
					"ior":1.4500000476837158
				}
			},
			"name":"Lens Left",
			"normalTexture":{
				"index":8
			},
			"pbrMetallicRoughness":{
				"baseColorFactor":[
					0.5,
					0.5,
					0.5,
					0.10000002384185791
				],
				"roughnessFactor":0.06363636255264282
			}
		},
		{
			"doubleSided":true,
			"extensions":{
				"KHR_materials_specular":{
					"specularTexture":{
						"index":9
					}
				},
				"KHR_materials_ior":{
					"ior":1.4500000476837158
				}
			},
			"name":"Realtime Eyeball Left",
			"normalTexture":{
				"index":10
			},
			"pbrMetallicRoughness":{
				"baseColorTexture":{
					"index":11
				},
				"metallicFactor":0,
				"metallicRoughnessTexture":{
					"index":12
				}
			}
		},
		{
			"doubleSided":true,
			"extensions":{
				"KHR_materials_specular":{
					"specularTexture":{
						"index":13
					}
				},
				"KHR_materials_ior":{
					"ior":1.4500000476837158
				}
			},
			"name":"Eye Wet",
			"pbrMetallicRoughness":{
				"baseColorFactor":[
					0,
					0,
					0,
					0.10000000149011612
				],
				"metallicFactor":0,
				"roughnessFactor":0.2030302882194519
			}
		}
	],
	"meshes":[
		{
			"name":"Head",
			"primitives":[
				{
					"attributes":{
						"POSITION":0,
						"NORMAL":1,
						"TEXCOORD_0":2
					},
					"indices":3,
					"material":0
				}
			]
		},
		{
			"name":"Lashes",
			"primitives":[
				{
					"attributes":{
						"COLOR_0":4,
						"POSITION":5,
						"NORMAL":6
					},
					"indices":7,
					"material":1
				}
			]
		},
		{
			"name":"Brows",
			"primitives":[
				{
					"attributes":{
						"COLOR_0":8,
						"POSITION":9,
						"NORMAL":10
					},
					"indices":11,
					"material":1
				}
			]
		},
		{
			"name":"Teeth",
			"primitives":[
				{
					"attributes":{
						"POSITION":12,
						"NORMAL":13,
						"TEXCOORD_0":14
					},
					"indices":15,
					"material":2
				}
			]
		},
		{
			"name":"Tongue",
			"primitives":[
				{
					"attributes":{
						"POSITION":16,
						"NORMAL":17,
						"TEXCOORD_0":18
					},
					"indices":19,
					"material":3
				}
			]
		},
		{
			"name":"Lens Right",
			"primitives":[
				{
					"attributes":{
						"COLOR_0":20,
						"POSITION":21,
						"NORMAL":22,
						"TEXCOORD_0":23
					},
					"indices":24,
					"material":4
				}
			]
		},
		{
			"name":"Lens Left",
			"primitives":[
				{
					"attributes":{
						"COLOR_0":25,
						"POSITION":26,
						"NORMAL":27,
						"TEXCOORD_0":28
					},
					"indices":24,
					"material":4
				}
			]
		},
		{
			"name":"Realtime Eyeball Right",
			"primitives":[
				{
					"attributes":{
						"COLOR_0":29,
						"POSITION":30,
						"NORMAL":31,
						"TEXCOORD_0":32
					},
					"indices":24,
					"material":5
				}
			]
		},
		{
			"name":"Realtime Eyeball Left",
			"primitives":[
				{
					"attributes":{
						"COLOR_0":33,
						"POSITION":34,
						"NORMAL":35,
						"TEXCOORD_0":36
					},
					"indices":24,
					"material":5
				}
			]
		},
		{
			"name":"Eye Wet",
			"primitives":[
				{
					"attributes":{
						"POSITION":37,
						"NORMAL":38,
						"TEXCOORD_0":39
					},
					"indices":40,
					"material":6
				}
			]
		}
	],
	"textures":[
		{
			"sampler":0,
			"source":0
		},
		{
			"sampler":0,
			"source":1
		},
		{
			"sampler":0,
			"source":2
		},
		{
			"sampler":0,
			"source":3
		},
		{
			"sampler":0,
			"source":4
		},
		{
			"sampler":0,
			"source":5
		},
		{
			"sampler":0,
			"source":6
		},
		{
			"sampler":0,
			"source":7
		},
		{
			"sampler":0,
			"source":8
		},
		{
			"sampler":0,
			"source":9
		},
		{
			"sampler":0,
			"source":10
		},
		{
			"sampler":0,
			"source":11
		},
		{
			"sampler":0,
			"source":12
		},
		{
			"sampler":0,
			"source":13
		}
	],
	"images":[
		{
			"mimeType":"image/png",
			"name":"Face_Specular",
			"uri":"Face_Specular.png"
		},
		{
			"mimeType":"image/jpeg",
			"name":"Face_Normal",
			"uri":"Face_Normal.jpg"
		},
		{
			"mimeType":"image/jpeg",
			"name":"Face_Albedo",
			"uri":"Face_Albedo.jpg"
		},
		{
			"mimeType":"image/png",
			"name":"Face_Roughness",
			"uri":"Face_Roughness.png"
		},
		{
			"mimeType":"image/jpeg",
			"name":"Teeth_Normal",
			"uri":"Teeth_Normal.jpg"
		},
		{
			"mimeType":"image/jpeg",
			"name":"Teeth_diffuse",
			"uri":"Teeth_diffuse.jpg"
		},
		{
			"mimeType":"image/jpeg",
			"name":"Tongue_Normal",
			"uri":"Tongue_Normal.jpg"
		},
		{
			"mimeType":"image/jpeg",
			"name":"Tongue_Diffuse",
			"uri":"Tongue_Diffuse.jpg"
		},
		{
			"mimeType":"image/jpeg",
			"name":"Lens_Normal",
			"uri":"Lens_Normal.jpg"
		},
		{
			"mimeType":"image/png",
			"name":"Eyes_Balls_Spec",
			"uri":"Eyes_Balls_Spec.png"
		},
		{
			"mimeType":"image/jpeg",
			"name":"Eyes_Balls_Normals",
			"uri":"Eyes_Balls_Normals.jpg"
		},
		{
			"mimeType":"image/jpeg",
			"name":"Eyes_Balls_Diffuse",
			"uri":"Eyes_Balls_Diffuse.jpg"
		},
		{
			"mimeType":"image/png",
			"name":"Eyes_Balls_Roughness",
			"uri":"Eyes_Balls_Roughness.png"
		},
		{
			"mimeType":"image/png",
			"name":"Eye_Wet",
			"uri":"Eye_Wet.png"
		}
	],
	"accessors":[
		{
			"bufferView":0,
			"componentType":5126,
			"count":12816,
			"max":[
				0.11685123294591904,
				0.1480276882648468,
				-0.05689515173435211
			],
			"min":[
				-0.11837166547775269,
				-0.0716710090637207,
				-0.3967655897140503
			],
			"type":"VEC3"
		},
		{
			"bufferView":1,
			"componentType":5126,
			"count":12816,
			"type":"VEC3"
		},
		{
			"bufferView":2,
			"componentType":5126,
			"count":12816,
			"type":"VEC2"
		},
		{
			"bufferView":3,
			"componentType":5123,
			"count":74460,
			"type":"SCALAR"
		},
		{
			"bufferView":4,
			"componentType":5123,
			"count":50120,
			"normalized":true,
			"type":"VEC4"
		},
		{
			"bufferView":5,
			"componentType":5126,
			"count":50120,
			"max":[
				0.04909150302410126,
				0.1220361739397049,
				-0.2892359495162964
			],
			"min":[
				-0.04884207248687744,
				0.1037914976477623,
				-0.30815911293029785
			],
			"type":"VEC3"
		},
		{
			"bufferView":6,
			"componentType":5126,
			"count":50120,
			"type":"VEC3"
		},
		{
			"bufferView":7,
			"componentType":5123,
			"count":217170,
			"type":"SCALAR"
		},
		{
			"bufferView":8,
			"componentType":5123,
			"count":121586,
			"normalized":true,
			"type":"VEC4"
		},
		{
			"bufferView":9,
			"componentType":5126,
			"count":121586,
			"max":[
				0.057418856769800186,
				0.12737585604190826,
				-0.3053502142429352
			],
			"min":[
				-0.05850868672132492,
				0.08406390994787216,
				-0.3237820267677307
			],
			"type":"VEC3"
		},
		{
			"bufferView":10,
			"componentType":5126,
			"count":121586,
			"type":"VEC3"
		},
		{
			"bufferView":11,
			"componentType":5125,
			"count":527532,
			"type":"SCALAR"
		},
		{
			"bufferView":12,
			"componentType":5126,
			"count":10630,
			"max":[
				0.04070146009325981,
				0.12268096208572388,
				-0.21755468845367432
			],
			"min":[
				-0.037858862429857254,
				0.06088612973690033,
				-0.25463396310806274
			],
			"type":"VEC3"
		},
		{
			"bufferView":13,
			"componentType":5126,
			"count":10630,
			"type":"VEC3"
		},
		{
			"bufferView":14,
			"componentType":5126,
			"count":10630,
			"type":"VEC2"
		},
		{
			"bufferView":15,
			"componentType":5123,
			"count":58464,
			"type":"SCALAR"
		},
		{
			"bufferView":16,
			"componentType":5126,
			"count":967,
			"max":[
				0.02456297166645527,
				0.11242635548114777,
				-0.22034400701522827
			],
			"min":[
				-0.022868430241942406,
				0.046470411121845245,
				-0.24795041978359222
			],
			"type":"VEC3"
		},
		{
			"bufferView":17,
			"componentType":5126,
			"count":967,
			"type":"VEC3"
		},
		{
			"bufferView":18,
			"componentType":5126,
			"count":967,
			"type":"VEC2"
		},
		{
			"bufferView":19,
			"componentType":5123,
			"count":5472,
			"type":"SCALAR"
		},
		{
			"bufferView":20,
			"componentType":5123,
			"count":1730,
			"normalized":true,
			"type":"VEC4"
		},
		{
			"bufferView":21,
			"componentType":5126,
			"count":1730,
			"max":[
				-0.014250105246901512,
				0.11385462433099747,
				-0.28317317366600037
			],
			"min":[
				-0.044964421540498734,
				0.08183710277080536,
				-0.3138914406299591
			],
			"type":"VEC3"
		},
		{
			"bufferView":22,
			"componentType":5126,
			"count":1730,
			"type":"VEC3"
		},
		{
			"bufferView":23,
			"componentType":5126,
			"count":1730,
			"type":"VEC2"
		},
		{
			"bufferView":24,
			"componentType":5123,
			"count":9984,
			"type":"SCALAR"
		},
		{
			"bufferView":25,
			"componentType":5123,
			"count":1730,
			"normalized":true,
			"type":"VEC4"
		},
		{
			"bufferView":26,
			"componentType":5126,
			"count":1730,
			"max":[
				0.04501403868198395,
				0.11396301537752151,
				-0.28290417790412903
			],
			"min":[
				0.01444836612790823,
				0.08212888985872269,
				-0.31347110867500305
			],
			"type":"VEC3"
		},
		{
			"bufferView":27,
			"componentType":5126,
			"count":1730,
			"type":"VEC3"
		},
		{
			"bufferView":28,
			"componentType":5126,
			"count":1730,
			"type":"VEC2"
		},
		{
			"bufferView":29,
			"componentType":5123,
			"count":1730,
			"normalized":true,
			"type":"VEC4"
		},
		{
			"bufferView":30,
			"componentType":5126,
			"count":1730,
			"max":[
				-0.014362766407430172,
				0.11373716592788696,
				-0.28328585624694824
			],
			"min":[
				-0.04485176131129265,
				0.08195453882217407,
				-0.3137787878513336
			],
			"type":"VEC3"
		},
		{
			"bufferView":31,
			"componentType":5126,
			"count":1730,
			"type":"VEC3"
		},
		{
			"bufferView":32,
			"componentType":5126,
			"count":1730,
			"type":"VEC2"
		},
		{
			"bufferView":33,
			"componentType":5123,
			"count":1730,
			"normalized":true,
			"type":"VEC4"
		},
		{
			"bufferView":34,
			"componentType":5126,
			"count":1730,
			"max":[
				0.044905632734298706,
				0.11385005712509155,
				-0.28301259875297546
			],
			"min":[
				0.014556736685335636,
				0.0822417363524437,
				-0.3133627474308014
			],
			"type":"VEC3"
		},
		{
			"bufferView":35,
			"componentType":5126,
			"count":1730,
			"type":"VEC3"
		},
		{
			"bufferView":36,
			"componentType":5126,
			"count":1730,
			"type":"VEC2"
		},
		{
			"bufferView":37,
			"componentType":5126,
			"count":478,
			"max":[
				0.04366939142346382,
				0.1143714040517807,
				-0.2935467064380646
			],
			"min":[
				-0.04371761530637741,
				0.10453249514102936,
				-0.3037869334220886
			],
			"type":"VEC3"
		},
		{
			"bufferView":38,
			"componentType":5126,
			"count":478,
			"type":"VEC3"
		},
		{
			"bufferView":39,
			"componentType":5126,
			"count":478,
			"type":"VEC2"
		},
		{
			"bufferView":40,
			"componentType":5123,
			"count":2364,
			"type":"SCALAR"
		}
	],
	"bufferViews":[
		{
			"buffer":0,
			"byteLength":153792,
			"byteOffset":0,
			"target":34962
		},
		{
			"buffer":0,
			"byteLength":153792,
			"byteOffset":153792,
			"target":34962
		},
		{
			"buffer":0,
			"byteLength":102528,
			"byteOffset":307584,
			"target":34962
		},
		{
			"buffer":0,
			"byteLength":148920,
			"byteOffset":410112,
			"target":34963
		},
		{
			"buffer":0,
			"byteLength":400960,
			"byteOffset":559032,
			"target":34962
		},
		{
			"buffer":0,
			"byteLength":601440,
			"byteOffset":959992,
			"target":34962
		},
		{
			"buffer":0,
			"byteLength":601440,
			"byteOffset":1561432,
			"target":34962
		},
		{
			"buffer":0,
			"byteLength":434340,
			"byteOffset":2162872,
			"target":34963
		},
		{
			"buffer":0,
			"byteLength":972688,
			"byteOffset":2597212,
			"target":34962
		},
		{
			"buffer":0,
			"byteLength":1459032,
			"byteOffset":3569900,
			"target":34962
		},
		{
			"buffer":0,
			"byteLength":1459032,
			"byteOffset":5028932,
			"target":34962
		},
		{
			"buffer":0,
			"byteLength":2110128,
			"byteOffset":6487964,
			"target":34963
		},
		{
			"buffer":0,
			"byteLength":127560,
			"byteOffset":8598092,
			"target":34962
		},
		{
			"buffer":0,
			"byteLength":127560,
			"byteOffset":8725652,
			"target":34962
		},
		{
			"buffer":0,
			"byteLength":85040,
			"byteOffset":8853212,
			"target":34962
		},
		{
			"buffer":0,
			"byteLength":116928,
			"byteOffset":8938252,
			"target":34963
		},
		{
			"buffer":0,
			"byteLength":11604,
			"byteOffset":9055180,
			"target":34962
		},
		{
			"buffer":0,
			"byteLength":11604,
			"byteOffset":9066784,
			"target":34962
		},
		{
			"buffer":0,
			"byteLength":7736,
			"byteOffset":9078388,
			"target":34962
		},
		{
			"buffer":0,
			"byteLength":10944,
			"byteOffset":9086124,
			"target":34963
		},
		{
			"buffer":0,
			"byteLength":13840,
			"byteOffset":9097068,
			"target":34962
		},
		{
			"buffer":0,
			"byteLength":20760,
			"byteOffset":9110908,
			"target":34962
		},
		{
			"buffer":0,
			"byteLength":20760,
			"byteOffset":9131668,
			"target":34962
		},
		{
			"buffer":0,
			"byteLength":13840,
			"byteOffset":9152428,
			"target":34962
		},
		{
			"buffer":0,
			"byteLength":19968,
			"byteOffset":9166268,
			"target":34963
		},
		{
			"buffer":0,
			"byteLength":13840,
			"byteOffset":9186236,
			"target":34962
		},
		{
			"buffer":0,
			"byteLength":20760,
			"byteOffset":9200076,
			"target":34962
		},
		{
			"buffer":0,
			"byteLength":20760,
			"byteOffset":9220836,
			"target":34962
		},
		{
			"buffer":0,
			"byteLength":13840,
			"byteOffset":9241596,
			"target":34962
		},
		{
			"buffer":0,
			"byteLength":13840,
			"byteOffset":9255436,
			"target":34962
		},
		{
			"buffer":0,
			"byteLength":20760,
			"byteOffset":9269276,
			"target":34962
		},
		{
			"buffer":0,
			"byteLength":20760,
			"byteOffset":9290036,
			"target":34962
		},
		{
			"buffer":0,
			"byteLength":13840,
			"byteOffset":9310796,
			"target":34962
		},
		{
			"buffer":0,
			"byteLength":13840,
			"byteOffset":9324636,
			"target":34962
		},
		{
			"buffer":0,
			"byteLength":20760,
			"byteOffset":9338476,
			"target":34962
		},
		{
			"buffer":0,
			"byteLength":20760,
			"byteOffset":9359236,
			"target":34962
		},
		{
			"buffer":0,
			"byteLength":13840,
			"byteOffset":9379996,
			"target":34962
		},
		{
			"buffer":0,
			"byteLength":5736,
			"byteOffset":9393836,
			"target":34962
		},
		{
			"buffer":0,
			"byteLength":5736,
			"byteOffset":9399572,
			"target":34962
		},
		{
			"buffer":0,
			"byteLength":3824,
			"byteOffset":9405308,
			"target":34962
		},
		{
			"buffer":0,
			"byteLength":4728,
			"byteOffset":9409132,
			"target":34963
		}
	],
	"samplers":[
		{
			"magFilter":9729,
			"minFilter":9987
		}
	],
	"buffers":[
		{
			"byteLength":9413860,
			"uri":"Facial.bin"
		}
	]
}
